<?xml version="1.0" encoding="utf-8"?>
<!-- Generator: Adobe Illustrator 22.1.0, SVG Export Plug-In . SVG Version: 6.00 Build 0)  -->
<svg version="1.1" id="svg" xmlns="http://www.w3.org/2000/svg" xmlns:xlink="http://www.w3.org/1999/xlink" x="0px" y="0px"
	 viewBox="0 0 237.6 73.4" style="enable-background:new 0 0 237.6 73.4;" xml:space="preserve">
<style type="text/css">
	.st0{fill:none;}
	.st1{fill:#35393E;}
	.st2{fill:#FE3639;}
</style>
<g id="svgg">
	<path id="path0" class="st0" d="M-81.2-163.3"/>
	<path id="path1" class="st1" d="M98,0.3C73.2,3.8,60.4,34.7,74.6,56.8C89,78.9,121.1,77,132.9,53.3C145.9,27.2,125.6-3.5,98,0.3
		 M0,0.9C0,0.9,5.3,14,11.6,30C18,45.9,24.4,61.7,25.7,65.1c3.1,7.9,2.3,7.2,8,7.1l4.8-0.1l14.2-35.4C60.4,17.2,66.8,1.2,66.8,1
		s-2.7-0.3-6.1-0.3h-6.1L44.1,28.9L33.5,57.2l-8.8-23.3C19.9,21,15.1,8.3,14.1,5.6l-1.8-4.9H6.2C2.8,0.7,0,0.8,0,0.9 M148.8,7.9v6.4
		h6.6h6.6V7.9V1.5h-6.6h-6.6V7.9 M107.8,11.3c13.6,3.7,20.7,19.6,15.6,34.6c-7,20.5-32.4,21.5-40.8,1.6
		C74.5,28.2,89.7,6.3,107.8,11.3"/>
	<path id="path2" class="st2" d="M177.6,37.1v35.7l16.5-0.1c19.9-0.2,22.6-0.7,30.1-6.1c17.1-12.2,18.1-44.1,1.7-57.5
		c-7.7-6.3-12-7.3-32.2-7.5l-16.1-0.2V37.1 M208.8,12.5c22.3,5.3,23,42.2,0.8,49.2c-1.7,0.5-4.2,0.7-11.3,0.9l-9.1,0.2V37.4V11.9
		h8.5C203.9,11.9,206.9,12.1,208.8,12.5 M148.8,43.1v28.8h6.6h6.6V43.1V14.3h-6.6h-6.6V43.1 M99.1,31.1c-1.9,1.2-2.7,2.8-2.7,5.2
		c0,6.2,7.8,8.5,11.2,3.3c1.7-2.6,0.8-6.8-1.9-8.6c-0.8-0.5-1.9-0.8-3.3-0.8C100.9,30.3,99.8,30.6,99.1,31.1"/>
</g>
</svg>
